<svg width="24" height="14" viewBox="0 0 24 14" fill="none" xmlns="http://www.w3.org/2000/svg">
<mask id="path-1-inside-1_70_305" fill="white">
<path d="M10.9393 13.0607C11.5251 13.6464 12.4749 13.6464 13.0606 13.0607L22.6067 3.51478C23.1924 2.929 23.1925 1.97925 22.6067 1.39346C22.0209 0.807667 21.0711 0.80766 20.4853 1.39345L12 8L3.51476 1.39333C2.92898 0.807535 1.97924 0.807529 1.39344 1.39332C0.807659 1.9791 0.807653 2.92884 1.39343 3.51464L10.9393 13.0607ZM10.5 11V12H13.5V11H10.5Z"/>
</mask>
<path d="M10.9393 13.0607C11.5251 13.6464 12.4749 13.6464 13.0606 13.0607L22.6067 3.51478C23.1924 2.929 23.1925 1.97925 22.6067 1.39346C22.0209 0.807667 21.0711 0.80766 20.4853 1.39345L12 8L3.51476 1.39333C2.92898 0.807535 1.97924 0.807529 1.39344 1.39332C0.807659 1.9791 0.807653 2.92884 1.39343 3.51464L10.9393 13.0607ZM10.5 11V12H13.5V11H10.5Z" fill="white"/>
<path d="M10.9393 13.0607L5.28237 18.7175L5.28291 18.718L10.9393 13.0607ZM13.0606 13.0607L7.40379 7.40378L7.40373 7.40383L13.0606 13.0607ZM22.6067 3.51478L28.2635 9.17169L28.2639 9.17124L22.6067 3.51478ZM22.6067 1.39346L28.2635 -4.26345L28.2635 -4.26345L22.6067 1.39346ZM20.4853 1.39345L25.4 7.70578L25.7914 7.40108L26.1421 7.05037L20.4853 1.39345ZM12 8L7.08521 14.3123L11.9999 18.1389L16.9147 14.3123L12 8ZM3.51476 1.39333L-2.14214 7.05013L-1.7914 7.40087L-1.40003 7.7056L3.51476 1.39333ZM1.39344 1.39332L-4.26335 -4.2636L-4.26338 -4.26357L1.39344 1.39332ZM1.39343 3.51464L-4.26351 9.1714L-4.26348 9.17143L1.39343 3.51464ZM10.5 11V2.99999H2.49998V11H10.5ZM10.5 12H2.49998V20H10.5V12ZM13.5 12V20H21.5V12H13.5ZM13.5 11H21.5V2.99999H13.5V11ZM5.28291 18.718C8.99253 22.427 15.0073 22.4277 18.7174 18.7175L7.40373 7.40383C9.94249 4.86507 14.0576 4.86577 16.5957 7.40335L5.28291 18.718ZM18.7174 18.7176L28.2635 9.17169L16.9499 -2.14213L7.40379 7.40378L18.7174 18.7176ZM28.2639 9.17124C31.9727 5.46195 31.9741 -0.552863 28.2635 -4.26345L16.9499 7.05036C14.4108 4.51136 14.4121 0.396047 16.9494 -2.14169L28.2639 9.17124ZM28.2635 -4.26345C24.5536 -7.97331 18.5385 -7.97342 14.8285 -4.26348L26.1421 7.05037C23.6036 9.58874 19.4882 9.58865 16.9499 7.05036L28.2635 -4.26345ZM15.5706 -4.91889L7.08528 1.68767L16.9147 14.3123L25.4 7.70578L15.5706 -4.91889ZM16.9148 1.68772L8.42955 -4.91895L-1.40003 7.7056L7.08521 14.3123L16.9148 1.68772ZM9.17167 -4.26348C5.46168 -7.97354 -0.553375 -7.97349 -4.26335 -4.2636L7.05024 7.05023C4.51186 9.58855 0.396292 9.58861 -2.14214 7.05013L9.17167 -4.26348ZM-4.26338 -4.26357C-7.97341 -0.553578 -7.97336 5.46144 -4.26351 9.1714L7.05038 -2.14213C9.58866 0.396235 9.58872 4.51177 7.05027 7.0502L-4.26338 -4.26357ZM-4.26348 9.17143L5.28237 18.7175L16.5962 7.40389L7.05035 -2.14216L-4.26348 9.17143ZM2.49998 11V12H18.5V11H2.49998ZM10.5 20H13.5V3.99999H10.5V20ZM21.5 12V11H5.49998V12H21.5ZM13.5 2.99999H10.5V19H13.5V2.99999Z" fill="white" mask="url(#path-1-inside-1_70_305)"/>
</svg>
