<svg width="24" height="24" viewBox="0 0 24 24" fill="none" xmlns="http://www.w3.org/2000/svg">
<path d="M1.44323 1.44323C1.84072 1.04586 2.37976 0.822632 2.94181 0.822632C3.50387 0.822632 4.04291 1.04586 4.4404 1.44323L11.9354 8.93826L19.4305 1.44323C19.8302 1.05712 20.3657 0.843476 20.9214 0.848306C21.4772 0.853135 22.0088 1.07605 22.4018 1.46905C22.7948 1.86205 23.0177 2.39368 23.0226 2.94944C23.0274 3.5052 22.8137 4.04063 22.4276 4.4404L14.9326 11.9354L22.4276 19.4305C22.8137 19.8302 23.0274 20.3657 23.0226 20.9214C23.0177 21.4772 22.7948 22.0088 22.4018 22.4018C22.0088 22.7948 21.4772 23.0177 20.9214 23.0226C20.3657 23.0274 19.8302 22.8137 19.4305 22.4276L11.9354 14.9326L4.4404 22.4276C4.04063 22.8137 3.5052 23.0274 2.94944 23.0226C2.39368 23.0177 1.86205 22.7948 1.46905 22.4018C1.07605 22.0088 0.853135 21.4772 0.848306 20.9214C0.843476 20.3657 1.05712 19.8302 1.44323 19.4305L8.93826 11.9354L1.44323 4.4404C1.04586 4.04291 0.822632 3.50387 0.822632 2.94181C0.822632 2.37976 1.04586 1.84072 1.44323 1.44323Z" fill="#1D3557"/>
</svg>
