<svg width="26" height="26" viewBox="0 0 26 26" fill="none" xmlns="http://www.w3.org/2000/svg">
<path d="M12.6858 19.4891C11.0181 19.4103 9.44496 18.6921 8.29302 17.4836C7.14108 16.2752 6.49893 14.6695 6.49996 13C6.49996 9.41413 9.41413 6.49996 13 6.49996C16.4883 6.49996 19.3266 9.24079 19.4891 12.6858L17.2141 12.0033C17.0371 11.2523 16.6626 10.5622 16.1296 10.0044C15.5965 9.44658 14.9241 9.04125 14.1819 8.8303C13.4397 8.61935 12.6547 8.61045 11.9079 8.80451C11.1611 8.99857 10.4797 9.38855 9.93414 9.93414C9.38855 10.4797 8.99857 11.1611 8.80451 11.9079C8.61045 12.6547 8.61936 13.4397 8.8303 14.1819C9.04125 14.9241 9.44659 15.5965 10.0044 16.1296C10.5622 16.6626 11.2523 17.0371 12.0033 17.2141L12.6858 19.4891V19.4891ZM23.8333 13C23.8333 13.325 23.8225 13.65 23.79 13.975L21.6558 13.3358C21.6666 13.2275 21.6666 13.1083 21.6666 13C21.6666 8.21163 17.7883 4.33329 13 4.33329C8.21163 4.33329 4.33329 8.21163 4.33329 13C4.33329 17.7883 8.21163 21.6666 13 21.6666C13.1083 21.6666 13.2275 21.6666 13.3358 21.6558L13.975 23.79C13.65 23.8225 13.325 23.8333 13 23.8333C7.01996 23.8333 2.16663 18.98 2.16663 13C2.16663 7.01996 7.01996 2.16663 13 2.16663C18.98 2.16663 23.8333 7.01996 23.8333 13ZM19.7491 17.615L23.8333 16.25L13 13L16.25 23.8333L17.615 19.7491L22.2408 24.375L24.3858 22.23L19.7491 17.615Z" fill="#1D3557"/>
</svg>
