<svg width="26" height="26" viewBox="0 0 26 26" fill="none" xmlns="http://www.w3.org/2000/svg">
<path d="M19.1967 23.1111H6.19671C6.00516 23.1111 5.82146 23.1872 5.68602 23.3226C5.55058 23.4581 5.47449 23.6418 5.47449 23.8333C5.47449 24.0249 5.55058 24.2086 5.68602 24.344C5.82146 24.4794 6.00516 24.5555 6.19671 24.5555H19.1967C19.3883 24.5555 19.572 24.4794 19.7074 24.344C19.8428 24.2086 19.9189 24.0249 19.9189 23.8333C19.9189 23.6418 19.8428 23.4581 19.7074 23.3226C19.572 23.1872 19.3883 23.1111 19.1967 23.1111V23.1111Z" fill="#1D3557"/>
<path d="M10.6311 7.12833C10.6673 7.3533 10.6558 7.58336 10.5973 7.80359C10.5388 8.02382 10.4347 8.22929 10.2916 8.40666C11.1767 9.91947 12.3942 11.2111 13.8522 12.1839C14.0977 12.35 14.3505 12.4944 14.5744 12.6389C14.8038 12.3853 15.1065 12.2094 15.4404 12.1356C15.7743 12.0619 16.1229 12.0939 16.4377 12.2272C17.5635 10.7362 18.3319 9.00655 18.6838 7.17166C16.0808 6.2523 13.2439 6.23704 10.6311 7.12833V7.12833Z" fill="#1D3557"/>
<path d="M12.8195 1.44446C10.1379 1.44446 7.56605 2.50973 5.66985 4.40593C3.77365 6.30214 2.70837 8.87394 2.70837 11.5556C2.70837 11.8806 2.70837 12.1983 2.75893 12.5161C2.94504 14.4663 3.69368 16.3204 4.91384 17.8531C6.134 19.3858 7.77312 20.531 9.63197 21.1495C11.4908 21.768 13.4893 21.8332 15.3845 21.3372C17.2797 20.8411 18.99 19.8052 20.3075 18.3553C21.6249 16.9055 22.4928 15.1041 22.8057 13.1702C23.1185 11.2363 22.8628 9.25312 22.0696 7.46183C21.2765 5.67053 19.98 4.14823 18.3378 3.07997C16.6957 2.01172 14.7785 1.44352 12.8195 1.44446V1.44446ZM20.2945 15.2317C19.2417 15.228 18.1935 15.0921 17.1745 14.8272C16.9324 15.1563 16.5771 15.3841 16.177 15.4668C15.777 15.5494 15.3605 15.4811 15.0078 15.275C13.523 16.4698 11.799 17.3318 9.95226 17.8028C9.89624 18.1 9.76148 18.3768 9.56203 18.6042C9.36259 18.8316 9.10577 19.0013 8.81837 19.0956L8.60893 19.1389C7.67458 18.6223 6.84437 17.9366 6.1606 17.1167H6.63726C6.70633 16.7728 6.88114 16.4591 7.13725 16.2194C7.39336 15.9797 7.71797 15.826 8.06569 15.7799C8.41341 15.7337 8.76686 15.7974 9.07663 15.962C9.38639 16.1266 9.63699 16.3838 9.79337 16.6978C11.4306 16.2656 12.9603 15.4983 14.2856 14.4445C14.1699 14.1788 14.1251 13.8876 14.1556 13.5995C13.8523 13.4261 13.5489 13.2456 13.2528 13.0506C11.6794 12.0074 10.3593 10.6255 9.38893 9.00613C9.09893 9.08574 8.7928 9.08548 8.50294 9.00539C8.21307 8.92529 7.95025 8.76834 7.74226 8.55113C6.39887 9.53522 5.18551 10.6855 4.13115 11.9745V11.5628C4.13465 11.1444 4.16844 10.7268 4.23226 10.3133C5.09857 9.25021 6.12135 8.32484 7.2656 7.5689C7.22497 7.25007 7.27855 6.92631 7.41972 6.63755C7.56089 6.3488 7.78348 6.10767 8.06004 5.9439C7.97337 5.63335 7.88671 5.32279 7.82171 5.00501C7.82171 4.9039 7.82171 4.79557 7.74226 4.54279C8.05752 4.31126 8.38809 4.10134 8.73171 3.91446C8.80393 4.34057 8.83282 4.56446 8.88337 4.78835C8.93393 5.01224 9.02782 5.40224 9.11448 5.70557H9.29504C9.60457 5.77716 9.88752 5.9349 10.1112 6.16057C12.9384 5.16352 16.0187 5.14572 18.8573 6.11001V5.38779C19.6635 6.18219 20.3064 7.12683 20.7495 8.16835C20.398 7.96131 20.0417 7.77353 19.6806 7.60501C19.2706 9.53932 18.4342 11.3578 17.2323 12.9278C17.3876 13.1876 17.4699 13.4845 17.4706 13.7872C18.658 14.033 19.8695 14.142 21.0817 14.1122C20.9606 14.4903 20.8134 14.8595 20.6412 15.2172L20.2945 15.2317Z" fill="#1D3557"/>
</svg>
